<svg width="1209" height="1207" viewBox="0 0 1209 1207" fill="none" xmlns="http://www.w3.org/2000/svg">
<path fill-rule="evenodd" clip-rule="evenodd" d="M431.767 9.82902C421.828 21.8223 415.24 32.8523 412.877 41.4543C410.108 51.5388 410.863 64.1049 414.687 71.6036L418.072 78.2382L407.833 88.9475C395.4 101.953 382.307 112 343.36 138.42C326.957 149.547 312.111 159.668 310.369 160.911C307.261 163.126 307.263 163.025 310.456 155.576C320.107 133.058 326.322 103.517 327.91 72.6125C328.808 55.0863 329.279 52.2727 330.524 56.9447C332.683 65.052 330.808 112.762 327.87 124.465C326.524 129.827 325.575 134.368 325.762 134.555C325.948 134.742 332.667 129.355 340.693 122.586C358.431 107.623 365.861 97.8262 365.861 89.4032C365.861 81.6946 362.733 79.0356 355.301 80.4302C350.219 81.3838 349.588 81.1185 349.588 78.0315C349.588 76.1227 352.151 69.9779 355.283 64.3751C366.046 45.1304 361.309 32.1135 346.358 39.8449C340.966 42.6341 341.37 43.2655 338.143 27.007C335.002 11.1781 325.267 5.06586 317.079 13.7818C313.674 17.4042 313.32 19.2089 313.552 31.6823C313.696 39.3111 313.163 45.5535 312.371 45.5535C311.578 45.5535 308.155 44.3932 304.762 42.9758C300.186 41.0654 297.649 40.8294 294.939 42.0629C286.409 45.9506 287.982 57.2604 299.195 72.6386C303.649 78.7491 307.035 84.4903 306.719 85.3984C306.068 87.273 300.01 87.4244 294.892 85.6946C292.599 84.92 290.217 85.5383 287.722 87.5595C282.461 91.8198 283.087 99.4291 289.541 109.652C302.117 129.575 303.191 132.171 303.084 142.407C302.918 158.283 297.455 167.851 275.802 190.188C265.603 200.71 252.951 215.13 247.687 222.233C223.733 254.556 208.992 296.05 207.699 334.798C207.424 343.071 207.084 349.846 206.944 349.85C206.804 349.857 204.185 346.384 201.126 342.132C198.067 337.88 191.671 330.009 186.916 324.638C182.161 319.268 176.179 310.323 173.623 304.761L168.975 294.649L173.121 288.54C176.055 284.216 176.973 281.226 176.265 278.312C174.859 272.519 169.063 267.132 162.918 265.904C158.526 265.027 156.907 265.648 152.747 269.808C149.748 272.808 147.8 276.437 147.8 279.03C147.8 285.143 152.03 292.483 156.326 293.823C159.826 294.915 162.367 297.352 162.422 299.666C162.435 300.251 156.687 297.269 149.649 293.039C142.611 288.808 134.647 284.434 131.95 283.318C128.64 281.946 126.243 279.235 124.566 274.965C122.173 268.872 113.929 262.006 108.991 261.993C103.749 261.979 95.819 267.454 93.2544 272.859C86.0486 288.043 104.937 303.197 118.535 293.143L123.35 289.584L133.542 294.707C139.146 297.524 147.753 302.482 152.666 305.726L161.602 311.62L152.666 312.564C144.909 313.384 143.127 313.008 139.132 309.716C132.743 304.45 125.897 304.795 120.011 310.681C110.003 320.689 116.577 335.216 131.114 335.216C136.575 335.216 142.448 330.332 143.888 324.593C144.733 321.232 145.875 320.572 150.824 320.58C167.165 320.604 178.044 327.2 190.534 344.653C204.039 363.528 207.336 371.404 212.874 398.039C215.643 411.358 220.166 429.95 222.922 439.353C225.681 448.757 228.517 458.432 229.23 460.85C230.406 464.853 229.544 464.441 219.674 456.295C200.587 440.541 157.402 421.636 108.042 407.43C97.3275 404.344 88.1592 401.399 87.6678 400.881C85.8566 398.973 105.287 402.424 125.832 407.662C149.237 413.63 173.535 422.037 186.778 428.748L195.429 433.13L191.66 426.891C189.587 423.459 185.945 417.721 183.564 414.141C181.183 410.561 176.138 402.289 172.353 395.759C161.353 376.784 151.893 367.762 143 367.762C137.488 367.762 133.155 373.492 133.155 380.781C133.155 389.498 130.758 389.142 120.888 378.955C99.4235 356.797 82.2651 355.318 84.9892 375.858C86.0274 383.679 85.907 384.035 82.2211 384.035C80.1024 384.035 74.2701 383.212 69.2595 382.206C52.5877 378.857 42.0248 383.614 42.0248 394.468C42.0248 401.973 48.6773 407.381 63.2466 411.719C75.943 415.501 76.9519 417.35 70.5028 425.015C65.3638 431.122 65.3703 434.542 70.5305 439.39C76.0129 444.541 86.4522 444.313 101.209 438.72C119.07 431.95 124.894 434.004 116.881 444.246C108.826 454.544 116.406 465.307 130.162 463.107C133.646 462.55 142.886 459.385 150.692 456.075C162.751 450.964 166.724 450.049 177.092 450.01C193.541 449.947 204.721 455.144 218.613 469.312C231.573 482.53 239.067 497.513 245.498 523.069C248.188 533.752 250.757 542.863 251.21 543.316C252.81 544.915 258.307 545.073 259.25 543.548C260.639 541.301 253.021 508.66 243.566 476.339C228.676 425.438 227.58 420.897 227.568 410.073C227.547 389.936 232.19 381.391 253.067 363.137C268.464 349.676 275.037 338.352 278.137 319.94C279.939 309.242 279.413 290.536 277.249 288.372C275.348 286.47 261.224 295.295 250.963 304.797C233.921 320.577 229.562 330.861 224.559 367.093L221.658 388.104L219.716 377.393C214.027 346.008 219.65 299.13 232.536 270.496C239.075 255.969 242.427 251.878 252.235 246.449C260.871 241.671 260.988 241.655 288.563 241.65C316.044 241.645 316.293 241.613 325.982 236.763C336.418 231.54 360.364 209.611 358.654 206.845C356.465 203.304 333.166 199.712 317.65 200.525C298.84 201.509 287.484 206.546 270.996 221.219C261.169 229.964 250.321 237.344 250.321 235.284C250.321 233.177 270.954 209.153 282.209 198.157C308.239 172.723 327.114 161.347 345.76 159.85C355.072 159.103 356.201 159.394 362.033 164.056C373.14 172.935 387.721 173.858 400.381 166.484C410.306 160.704 408.085 152.384 394.861 145.793C382.108 139.438 369.381 140.54 359.352 148.867C357.174 150.675 339.824 153.659 339.824 152.227C339.824 151.91 347.695 146.542 357.317 140.296C384.274 122.799 396.378 113.447 411.549 98.3974L425.505 84.5538L432.503 87.0224C444.063 91.1005 453.466 90.2234 466.13 83.8801C477.946 77.9632 501.431 59.0749 499.95 56.6795C498.481 54.3004 487.428 49.3077 481.081 48.1572L475.069 47.0669L478.144 41.8351C481.929 35.3991 485.096 21.8402 483.781 17.6987C483.093 15.5311 481.291 14.6443 477.63 14.6703C472.078 14.7094 459.585 19.7654 455.168 23.7605C452.711 25.985 452.307 25.5017 450.568 18.2455C448.616 10.117 443.383 -0.0211221 441.149 3.30528e-05C440.464 0.00654232 436.242 4.42958 431.767 9.82902ZM763.161 2.14808C760.197 5.71841 756.417 15.8826 756.417 20.278C756.417 22.5449 756.026 24.3984 755.55 24.3984C755.071 24.3984 751.04 22.553 746.59 20.2975C742.137 18.0421 735.205 15.7459 731.184 15.1943L723.871 14.1919L723.887 22.1429C723.897 27.129 725.384 33.2754 727.875 38.626L731.848 47.1597L727.452 48.097C719.876 49.7129 709.55 53.7796 707.864 55.8105C705.741 58.3719 724.925 75.226 738.552 82.7686C750.822 89.5627 765.164 91.3202 774.95 87.2307L781.273 84.5896L795.289 98.4332C810.636 113.592 815.344 117.225 846.862 138.236L868.147 152.426L859.88 151.712C854.751 151.267 849.155 149.411 845.132 146.818C837.47 141.884 825.991 140.371 817.492 143.176C810.131 145.606 800.355 153.904 800.355 157.723C800.355 162.198 807.691 167.871 816.393 170.13C826.694 172.802 836.139 170.847 845.667 164.069C852.144 159.464 853.537 159.114 862.251 159.905C880.572 161.565 901.653 174.483 926.543 199.296C939.747 212.461 956.577 232.495 956.577 235.05C956.577 236.729 948.069 230.7 936.333 220.702C930.122 215.41 920.236 208.803 914.364 206.022C904.345 201.273 902.539 200.962 884.975 200.962C864.699 200.962 849.174 203.869 849.174 207.664C849.174 211.763 869.203 230.085 880.093 235.95L890.671 241.645L918.335 241.699C943.837 241.749 946.603 242.047 953.724 245.504C969.208 253.02 978.427 270.335 986.114 306.331C989.024 319.957 989.644 327.927 989.501 349.862C989.403 364.63 988.676 379.276 987.882 382.408C986.546 387.673 986.277 386.994 984.331 373.458C978.699 334.277 973.54 320.801 958.566 306.149C949.366 297.148 931.755 286.265 929.707 288.315C927.905 290.116 928.607 317.905 930.665 326.305C934.293 341.095 939.458 348.825 955.701 363.764C974.451 381.009 979.179 389.288 980.422 407.067C981.215 418.387 980.611 421.194 969.071 459.79C957.303 499.162 948.44 534.378 948.44 541.783C948.44 544.717 949.236 545.264 952.886 544.84C957.122 544.351 957.5 543.555 960.873 527.981C969.081 490.094 983.945 467.279 1008.19 455.343C1017.46 450.781 1020.94 449.942 1030.59 449.942C1040.22 449.942 1044.74 451.027 1059.38 456.858C1077.73 464.165 1082.4 464.949 1089.17 461.868C1095.56 458.952 1096.2 453.003 1091.08 443.834C1085.16 433.239 1087.62 432.583 1107.89 439.354C1124.45 444.887 1129.12 444.996 1136.8 440.03C1141.76 436.826 1141.58 429.548 1136.4 423.387C1134.16 420.728 1132.33 417.775 1132.33 416.823C1132.33 415.871 1137.27 413.607 1143.31 411.791C1149.35 409.977 1156.66 407.039 1159.54 405.264C1169.4 399.196 1168.16 387.55 1157.16 382.957C1151.21 380.468 1148.85 380.507 1129.56 383.412L1122.73 384.442L1122.24 374.101C1121.79 364.522 1121.43 363.645 1117.36 362.221C1110.81 359.928 1102 364.622 1089.87 376.865C1084.18 382.599 1078.69 387.29 1077.67 387.29C1076.64 387.29 1075.38 384.185 1074.87 380.39C1073.94 373.399 1069.28 367.762 1064.45 367.762C1059.63 367.762 1050.62 373.254 1045.99 379.027C1041.5 384.615 1013.65 430.009 1014.25 430.774C1014.4 430.972 1021.41 428.165 1029.83 424.536C1048.28 416.582 1076.77 408.204 1101.41 403.49C1119.45 400.04 1127.72 400.069 1114.18 403.536C1097.26 407.871 1054.08 422.26 1036.13 429.543C1012.42 439.169 995.709 448.544 985.439 457.973C981.2 461.865 977.74 464.578 977.75 464.005C977.761 463.431 980.739 452.708 984.368 440.178C987.999 427.648 993.06 407.358 995.616 395.09C1000.88 369.801 1006.5 357.408 1020.48 340.194C1030.39 327.991 1039.85 322.437 1053.04 321.076L1062.13 320.137L1064.54 325.919C1071.87 343.442 1097.51 334.287 1091.57 316.272C1088.15 305.901 1076.99 302.691 1068.37 309.594C1064.71 312.523 1062.2 313.135 1055.73 312.681L1047.65 312.116L1054.27 306.876C1057.91 303.994 1065.98 298.889 1072.2 295.531L1083.5 289.425L1088.46 292.956C1097.35 299.285 1108.96 297.023 1113.6 288.056C1118.72 278.141 1115.04 267.912 1104.81 263.676C1101.02 262.105 1098.69 262.094 1094.05 263.624C1088.14 265.575 1081.9 273.152 1081.89 278.388C1081.88 279.892 1078.37 282.592 1073.42 284.898C1068.76 287.065 1060.96 291.23 1056.09 294.154C1051.21 297.078 1046.89 299.14 1046.49 298.738C1045.28 297.526 1047.75 294.533 1049.96 294.533C1054.32 294.533 1059.84 286.375 1059.84 279.926C1059.84 268.789 1049.68 262.454 1039.92 267.502C1030.95 272.143 1029.47 282.881 1036.73 290.808C1039.7 294.055 1039.81 294.928 1037.86 299.758C1034.32 308.549 1028.13 317.594 1019.18 327.079C1014.54 332.002 1008.44 339.252 1005.63 343.19L1000.51 350.35V342.334C1000.51 328.946 997.366 307.584 993.011 291.435C983.293 255.393 966.074 226.293 935.864 194.86C914.366 172.489 906.444 159.905 904.989 145.816C903.862 134.885 905.803 129.069 915.923 113.042C924.249 99.8571 925.674 93.989 921.832 88.7327C919.993 86.2185 918.247 85.8898 911.176 86.7279C899.852 88.0688 899.02 85.4195 907.31 74.4189C916.203 62.6208 917.521 59.7519 917.521 52.2076C917.521 46.9628 916.685 45.0816 913.399 42.927C909.546 40.4031 908.864 40.4128 902.963 43.0735C894.078 47.0799 892.675 45.5861 893.969 33.5032C895.328 20.8037 892.208 12.0324 885.755 10.4116C877.587 8.36281 869.166 18.8118 868.826 31.4219C868.757 33.941 867.942 37.4251 867.013 39.1614C865.444 42.0906 864.982 42.141 860.583 39.8677C854.556 36.7497 851.675 36.7758 848.476 39.9734C844.356 44.0938 845.482 50.9611 852.429 64.0724C860.713 79.7076 860.811 81.8541 853.177 80.422C846.683 79.2032 841.037 82.806 841.037 88.1681C841.037 93.2258 845.184 101.558 851.005 108.197C856.764 114.767 880.161 133.902 881.185 132.88C881.511 132.553 880.667 127.007 879.31 120.553C876.142 105.499 874.651 75.4197 876.399 61.8267C877.743 51.3565 877.777 51.4965 879.755 75.6589C880.851 89.0842 882.892 105.561 884.288 112.274C886.428 122.563 894.498 148.926 898.95 160.169C899.847 162.429 897.491 161.353 890.552 156.332C885.247 152.493 869.922 141.998 856.497 133.01C824.772 111.772 807.497 98.2705 797.577 86.9606L789.552 77.8118L793.326 70.3571C801.697 53.8235 795.264 33.1534 773.842 7.74931C766.76 -0.650904 765.87 -1.11632 763.161 2.14808ZM574.157 79.4115C532.973 101.372 496.826 125.041 463.5 151.874C445.505 166.361 397.647 214.796 382.839 233.509C340.528 286.968 308.934 348.684 291.611 411.7C281.916 446.972 274.749 497.595 274.736 530.901L274.731 545.14H294.132H313.535L315.489 539.037C318.052 531.039 322.329 525.474 336.405 511.824C363.33 485.715 364.557 465.662 342.133 418.129C332.109 396.88 329.11 384.024 331.331 371.819C332.737 364.085 332.865 363.928 333.985 368.576C336.603 379.438 342.323 393.988 351.259 412.514C365.101 441.214 368.196 451.737 368.253 470.283C368.297 484.15 367.809 486.75 363.514 495.507C360.328 502.005 354.325 509.625 345.568 518.289C330.032 533.659 327.56 536.6 326.065 541.508L324.94 545.198L364.473 544.762L404.005 544.326L405.93 532.935C411.312 501.075 427.004 472.129 451.077 449.647C462.911 438.595 486.797 421.464 490.373 421.464C493.247 421.464 521.857 444.043 535.719 457.252C551.766 472.544 561.002 484.477 570.062 501.62C578.877 518.304 583.319 531.786 586.51 551.548C587.874 559.996 589.376 567.532 589.846 568.295C590.318 569.057 593.612 571.517 597.166 573.761L603.628 577.841L609.052 574.489C617.083 569.525 617.864 568.039 619.849 553.962C625.117 516.602 638.757 490.133 667.637 461.231C683.787 445.068 712.737 421.464 716.408 421.464C720.084 421.464 743.808 438.427 755.821 449.647C780.036 472.26 795.595 500.958 800.976 532.935L802.893 544.326L842.307 544.762C869.791 545.067 881.72 544.665 881.72 543.434C881.72 539.534 877.244 533.786 861.338 517.266C841.576 496.742 838.513 490.252 838.78 469.47C838.995 452.736 842.134 442.302 855.67 413.327C861.734 400.349 867.963 385.337 869.516 379.967C874.393 363.087 874.69 362.783 876.043 373.31C877.707 386.265 875.498 394.816 863.854 420.473C852.614 445.242 848.508 460.64 849.652 473.722C850.938 488.405 855.643 496.615 872.022 512.745C882.677 523.239 887.924 529.82 890.78 536.279L894.744 545.242L913.861 544.785L932.981 544.326L932.522 527.239C927.822 352.329 831.786 197.185 666.915 98.1565C648.313 86.9834 606.186 65.0797 603.314 65.0878C602.046 65.0911 588.925 71.5369 574.157 79.4115ZM157.597 86.6921C152.243 89.4113 149.219 95.6781 150.357 101.696C150.865 104.381 153.53 111.821 156.279 118.23C162.554 132.853 161.875 135.056 151.105 135.056C145.088 135.056 142.056 135.918 139.664 138.311C135.711 142.263 135.596 145.054 139.08 152.395C142.367 159.324 148.419 164.043 163.683 171.588C172.191 175.793 175.465 178.279 175.465 180.533C175.465 182.251 174.182 184.028 172.617 184.482C171.05 184.936 166.625 186.121 162.781 187.115C154.433 189.273 151.372 194.684 154.385 201.958C157.123 208.567 160.918 211.432 180.012 221.304C194.182 228.63 198.444 231.73 203.505 238.391C206.906 242.866 210.525 249.274 211.549 252.63C216.219 267.952 218.869 253.586 215.375 231.878C210.594 202.163 203.45 178.73 189.383 146.618C185.308 137.315 181.974 129.269 181.974 128.74C181.974 128.21 184.662 131.767 187.946 136.646C200.704 155.591 216.818 194.787 221.837 219.086C223.28 226.072 224.738 232.064 225.075 232.402C225.414 232.739 226.75 229.465 228.043 225.126C229.337 220.786 233.895 207.716 238.17 196.08C244.787 178.077 245.968 173.073 246.098 162.494C246.224 152.413 245.667 149.414 243.153 146.628C239.125 142.166 230.685 142.073 226.725 146.447C225.106 148.237 222.685 149.702 221.345 149.702C219.287 149.702 219.066 147.354 219.91 134.498C221 117.909 219.396 109.012 214.415 104.031C209.608 99.2241 204.158 100.095 198.465 106.578C195.715 109.71 192.786 112.274 191.958 112.274C191.128 112.274 188.114 108.632 185.258 104.182C180.147 96.2168 170.218 86.2364 167.405 86.2364C166.614 86.2364 164.991 85.8784 163.8 85.439C162.607 85.0013 159.817 85.5644 157.597 86.6921ZM1046.06 87.4716C1042.92 89.0387 1036.84 95.0305 1032.45 100.882C1028.09 106.7 1023.81 111.727 1022.94 112.052C1022.07 112.379 1019.18 109.999 1016.52 106.763C1010.99 100.061 1005.53 99.1264 1000.61 104.046C996.194 108.457 995.009 116.747 996.254 134.472C997.257 148.719 997.126 149.702 994.238 149.702C992.539 149.702 990.175 148.527 988.983 147.092C982.269 139.002 972.722 141.881 969.391 152.999C966.782 161.705 969.324 175.522 977.576 197.491C980.992 206.586 985.031 218.306 986.552 223.536C988.072 228.765 989.599 232.762 989.945 232.417C990.29 232.07 991.755 226.072 993.198 219.086C996.679 202.233 1003.86 181.983 1013.76 161.093C1021.77 144.195 1031.29 127.86 1032.45 129.025C1032.78 129.355 1030.05 136.522 1026.37 144.953C1016.45 167.692 1009.53 187.5 1004.81 206.658C999.883 226.643 996.947 248.626 998.3 255.388C999.226 260.014 999.392 259.871 1004.15 250.353C1011.27 236.098 1018.65 229.317 1037.13 220.043C1056.34 210.402 1061.38 205.712 1061.38 197.472C1061.38 190.611 1058.02 187.516 1049 186.074C1035.79 183.962 1037.16 177.981 1052.41 171.158C1065.68 165.228 1073.42 158.999 1076.41 151.865C1081.03 140.792 1077.83 136.27 1064.54 135.089C1052.63 134.029 1051.87 131.474 1059.15 117.045C1067.42 100.663 1065.86 88.8239 1055.01 85.6067C1053.21 85.0729 1049.19 85.9126 1046.06 87.4716ZM616.499 115.66C617.578 120.156 617.94 126.444 617.314 129.811C616.211 135.748 605.186 157.806 603.313 157.827C602.79 157.834 599.228 151.245 595.399 143.186C589.135 130.006 588.551 127.762 589.588 120.849C590.868 112.313 595.544 101.994 600.663 96.4055L604.019 92.7441L609.288 100.155C612.186 104.231 615.431 111.209 616.499 115.66ZM569.879 114.028C572.244 115.886 574.961 118.871 575.918 120.659C577.533 123.675 577.383 123.767 573.874 121.93C567.376 118.529 561.139 113.745 561.139 112.163C561.139 109.582 565.378 110.485 569.879 114.028ZM645.759 112.949C645.759 114.213 642.464 117.092 638.436 119.343C630.046 124.033 628.939 122.334 635.87 115.403C640.931 110.342 645.759 109.143 645.759 112.949ZM561.953 128.941C572.766 134.633 580.434 146.667 581.781 160.056C583.502 177.158 567.541 197.726 547.307 204.479C536.988 207.924 515.994 207.882 498.487 204.38C480.452 200.774 465.637 201.023 454.696 205.115C441.982 209.872 430.566 222.651 425.982 237.26C422.793 247.429 422.64 250.381 423.683 281.615C424.893 317.822 423.873 327.237 417.344 340.098C410.352 353.873 396.406 359.237 383.001 353.308C370.894 347.953 367.425 335.068 375.952 327.125C380.186 323.179 385.825 322.866 389.341 326.381C392.398 329.439 392.7 337.017 389.877 339.841C388.269 341.449 388.35 342.171 390.284 343.383C395.346 346.558 405.579 339.909 406.99 332.528C408.337 325.475 404.855 315.971 399.057 310.879C391.782 304.492 383.979 303.15 374.713 306.689C361.134 311.875 354.11 326.048 354.125 348.234C354.134 362.817 356.322 371.04 365.09 389.435C369.758 399.233 372.294 399.461 372.346 390.086C372.385 382.799 376.663 374.582 382.157 371.241C387.159 368.198 399.719 365.277 401.244 366.801C402.453 368.011 395.39 377.305 384.015 389.467C373.853 400.333 373.633 400.755 374.705 407.368C377.15 422.437 377.594 429.781 376.504 437.055L375.36 444.69L370.757 431.042C368.227 423.537 362.139 408.974 357.228 398.681C345.256 373.588 343.07 365.539 343.117 346.718C343.174 323.323 350.717 306.914 365.353 298.336C378.726 290.499 396.738 293.041 407.715 304.316C411.712 308.421 413.174 309.132 413.87 307.316C414.373 306.006 414.072 294.294 413.201 281.29C410.513 241.157 415.639 221.387 432.709 206.038C449.139 191.267 468.292 188.289 508.497 194.256C531.6 197.687 541.346 196.499 553.533 188.77C564.319 181.931 569.974 172.636 569.974 161.747C569.974 151.962 566.859 146.442 557.901 140.345C547.699 133.401 531.279 136.532 526.179 146.393C522.358 153.783 523.024 160.317 527.999 164.229C533.6 168.636 537.058 168.484 542.887 163.58C548.415 158.929 549.748 159.581 549.748 166.942C549.748 177.687 535.377 182.622 524.103 175.747C507.141 165.405 509.055 138.761 527.457 129.051C537.714 123.639 551.795 123.593 561.953 128.941ZM677.167 127.923C689.103 133.954 694.582 142.193 694.572 154.096C694.563 167.934 684.245 178.974 671.316 178.987C663.629 178.995 657.151 173.202 657.151 166.32C657.151 159.601 658.596 159.023 664.011 163.58C673.084 171.213 683.188 166.505 683.188 154.646C683.188 142.504 670.934 133.759 658.008 136.674C645.148 139.573 637.639 148.751 637.629 161.581C637.621 171.285 640.257 176.509 649.432 184.966C662.075 196.619 672.615 198.015 710.304 193.034C728.99 190.564 735.25 190.321 743.392 191.755C771.488 196.705 789.465 214.967 793.844 243.012C794.923 249.922 795.175 264.734 794.509 282.068L793.437 309.993L799.897 303.807C820.602 283.983 852.587 294.723 861.418 324.466C868.371 347.88 865.439 365.845 848.998 400.549C843.5 412.159 837.335 426.907 835.3 433.324L831.601 444.992L830.406 435.434C829.658 429.441 829.985 421.788 831.282 414.912C833.868 401.202 832.769 396.733 825.436 391.14C819.399 386.535 804.354 368.102 805.609 366.848C806.986 365.471 821.449 368.976 825.593 371.691C830.296 374.771 833.571 381.357 835.781 392.172L837.277 399.495L843.345 386.732C854.788 362.659 856.57 340.239 848.434 322.677C838.932 302.168 815.494 298.39 804.049 315.522C799.652 322.105 799.141 332.759 802.96 338.212C807.826 345.159 820.227 346.824 816.598 340.043C810.704 329.031 822.629 318.435 831.233 327.039C835.884 331.69 836.741 337.172 833.889 344.002C831.977 348.576 829.596 350.788 823.838 353.333C805.516 361.439 789.168 348.658 784.01 322.197C782.882 316.416 782.654 302.007 783.367 281.495C784.628 245.124 782.95 234.382 774.081 222.031C760.669 203.354 740.393 198.002 707.37 204.42C690.154 207.766 668.366 207.758 659.105 204.401C636.868 196.337 622.147 174.572 626.186 155.723C629.044 142.389 635.244 133.954 646.573 127.992C653.133 124.54 670.394 124.501 677.167 127.923ZM496.922 170.738C495.514 173.457 492.193 176.806 489.537 178.18C483.319 181.395 470.009 183.303 470.009 180.977C470.009 180.035 476.418 173.356 484.248 166.136L498.487 153.007L498.984 159.401C499.26 162.981 498.354 167.967 496.922 170.738ZM727.532 170.774C732.679 175.687 736.889 180.36 736.889 181.161C736.889 183.174 722.515 180.845 716.847 177.915C711.454 175.125 707.597 166.989 707.597 158.4V152.348L712.886 157.096C715.796 159.708 722.385 165.863 727.532 170.774ZM614.642 200.409C632.29 210.328 664.591 232.571 676.605 243.077C716.933 278.346 733.661 319.568 724.735 361.692C719.877 384.615 707.109 401.09 672.298 429.346C656.335 442.305 638.946 461.1 628.134 477.081C620.878 487.806 609.044 512.615 606.557 522.315C605.405 526.813 604.05 530.492 603.548 530.492C603.046 530.491 601.303 525.913 599.672 520.322C598.043 514.729 593.399 503.562 589.353 495.507C575.357 467.64 558.786 448.07 529.528 424.853C509.278 408.784 498.63 398.004 492.393 387.266C474.509 356.47 476.639 314.551 497.91 278.738C505.407 266.117 531.188 240.573 549.31 227.813C568.623 214.214 599.913 195.267 603.059 195.267C604.398 195.267 609.61 197.581 614.642 200.409ZM498.536 217.151C506.14 220.327 508.83 226.257 505.19 231.815C501.696 237.146 499.942 237.029 496.962 231.265C494.354 226.222 491.491 224.558 485.415 224.558C482.434 224.558 479.918 227.092 474.344 235.71C468.476 244.779 465.515 247.668 458.486 251.17C453.731 253.539 448.174 255.477 446.133 255.477C442.866 255.477 442.607 255.002 443.951 251.466C446.141 245.702 443.04 244.587 437.077 248.996L432.117 252.662L433.29 247.967C434.976 241.209 440.237 233.258 445.502 229.51C452.105 224.807 479.544 215.115 486.741 214.943C490.126 214.861 495.434 215.855 498.536 217.151ZM740.796 220.555C763.348 228.615 771.304 235.118 773.782 247.515L774.848 252.844L771.022 249.279C766.565 245.128 760.406 244.364 761.938 248.154C762.482 249.497 763.37 251.694 763.914 253.036C766.287 258.9 749.254 253.65 741.195 246.034C738.642 243.621 734.074 237.8 731.045 233.102C726.406 225.904 724.766 224.558 720.636 224.558C715.861 224.558 711.781 227.517 708.348 233.471C706.732 236.273 706.528 236.275 703.785 233.531C698.973 228.719 700.818 221.032 707.597 217.646C715.895 213.499 722.736 214.1 740.796 220.555ZM597.469 231.828C591.856 234.256 588.009 239.154 586.32 246.023C585.353 249.961 584.821 250.239 581.03 248.797C575.352 246.638 568.187 249.715 565.131 255.625C559.752 266.026 563.808 286.65 575.262 307.145C578.388 312.739 580.532 317.315 580.024 317.315C579.518 317.315 574.89 314.621 569.739 311.325C559.253 304.618 539.613 297.788 530.811 297.788C518.261 297.788 509.752 305.695 511.717 315.527C512.593 319.901 512.092 320.518 505.192 323.571C496.518 327.408 491.638 335.279 493.452 342.506C494.866 348.14 501.971 354.708 507.947 355.904C512.119 356.737 512.537 357.38 511.844 361.893C508.476 383.822 535.502 386.932 568.618 368.425C574.074 365.375 578.966 362.88 579.489 362.88C580.011 362.88 576.725 370.084 572.188 378.891C564.989 392.864 563.839 396.445 563.162 407.016C562.433 418.37 562.66 419.461 566.787 424.365C570.463 428.735 572.325 429.6 578.047 429.6C584.571 429.6 585.074 429.957 588.504 437.016C595.91 452.262 611.376 452.038 618.547 436.58C622.08 428.964 622.315 428.798 628.801 429.273C633.512 429.618 636.581 428.834 639.379 426.565C642.988 423.639 643.318 422.211 643.318 409.526C643.318 396.091 643.073 395.197 634.988 379.28C630.407 370.26 627.05 362.88 627.53 362.88C628.01 362.88 633.068 365.445 638.772 368.581C658.713 379.541 674.631 383.027 686.249 378.978C692.576 376.771 696.815 369.354 695.407 362.949C694.493 358.786 695.057 358.057 701.663 354.859C708.416 351.59 714.107 344.132 714.107 338.55C714.107 333.336 708.475 326.565 701.614 323.53C694.761 320.498 694.302 319.919 695.202 315.421C696.615 308.357 692.571 301.706 685.433 299.35C674.257 295.662 655.577 300.388 636.921 311.621C631.721 314.752 627.151 317.315 626.769 317.315C626.386 317.315 628.673 312.665 631.851 306.982C640.108 292.219 644.132 279.373 644.132 267.79C644.132 252.8 637.473 245.744 626.342 248.937C623.076 249.873 621.35 249.788 621.35 248.693C621.35 247.772 620.142 244.473 618.666 241.362C614.237 232.031 605.789 228.231 597.469 231.828ZM396.58 258.032C400.422 262.919 402.469 274.136 400.856 281.477C399.75 286.515 399.659 286.561 396.453 283.661C391.766 279.423 387.016 269.432 387.016 263.813C387.016 253.29 390.97 250.901 396.58 258.032ZM818.895 256.425C821.321 262.747 819.794 271.383 815.108 277.853C807.666 288.126 806.864 287.898 806.87 275.508C806.874 267.334 807.721 263.04 810.101 259.139C813.575 253.44 817.308 252.288 818.895 256.425ZM527.792 265.22C526.334 267.58 529.423 277.451 533.341 282.955C537.937 289.409 561.139 300.373 561.139 296.094C561.139 292.642 553.103 277.074 549.16 272.888C542.542 265.861 530.145 261.412 527.792 265.22ZM669.251 265.355C662.054 267.448 652.794 277.467 649.2 287.054C647.488 291.615 646.36 295.631 646.692 295.978C647.022 296.325 650.617 295.679 654.679 294.541C664.654 291.749 675.549 281.939 678.088 273.464C681.012 263.705 679.551 262.364 669.251 265.355ZM464.118 270.53C460.398 276.829 453.996 283.882 443.669 293.062L432.052 303.386L433.025 293.952C434.491 279.741 440.657 272.527 453.469 270.032C463.083 268.159 465.453 268.27 464.118 270.53ZM762.739 272.994C769.574 276.208 774.728 286.805 774.002 296.151L773.504 302.58L761.263 290.828C754.531 284.362 747.268 276.592 745.125 273.559L741.228 268.045L749.229 269.225C753.629 269.874 759.709 271.57 762.739 272.994ZM606.614 282.645C607.672 286.847 608.356 294.208 608.134 299.003L607.731 307.721L615.888 311.501C624.767 315.615 629.905 321.066 633.019 329.678L635.022 335.216L647.307 335.379C660.869 335.558 667.173 336.809 666.98 339.284C666.779 341.846 658.96 343.444 646.568 343.46L635.172 343.473L632.186 350.693C628.71 359.094 619.877 367.487 613.08 368.846C608.546 369.754 608.331 370.189 608.331 378.464C608.331 388.441 605.423 403.563 603.505 403.563C601.511 403.563 600.227 397.537 599.117 382.973C598.134 370.084 597.977 369.678 593.588 368.801C586.976 367.478 578.135 358.973 574.708 350.64L571.716 343.364L559.512 343.286C552.799 343.242 545.11 342.246 542.425 341.074L537.543 338.943L544.052 337.087C547.632 336.069 555.404 335.231 561.324 335.226L572.088 335.216L574.791 328.139C578.07 319.553 582.41 315.267 592.209 310.931C598.981 307.936 599.581 307.213 598.938 302.834C598.081 296.987 601.607 275.005 603.404 275.005C604.111 275.005 605.557 278.444 606.614 282.645ZM463.166 314.105C462.188 318.108 461.345 329.805 461.295 340.098C461.184 361.813 463.837 373.79 472.753 391.853C476.107 398.645 477.996 404.305 477.163 405.062C476.361 405.789 468.748 410.997 460.245 416.635C426.809 438.809 404.371 468.148 390.071 508.395L385.398 521.544L386.315 505.271C389.462 449.34 405.881 396.325 435.351 346.941C444.999 330.772 463.248 305.13 464.333 306.216C464.67 306.551 464.144 310.102 463.166 314.105ZM763.136 333.589C785.033 366.345 805.383 413.441 813.171 449.395C817.5 469.37 821.526 500.354 821.448 513.083L821.386 523.171L816.8 509.339C802.206 465.32 779.168 436.702 736.458 409.539L727.078 403.573L731.321 396.854C743.04 378.288 748.487 351.029 745.384 326.467C744.326 318.088 743.024 309.856 742.49 308.172C740.831 302.928 751.055 315.516 763.136 333.589ZM592.545 322.132C574.935 332.868 581.991 359.525 602.596 360.107C619.989 360.6 630.394 342.663 620.894 328.563C614.256 318.713 602.518 316.049 592.545 322.132ZM443.725 356.807C439.534 363.526 427.699 386.504 427.699 387.92C427.699 388.31 431.177 388.512 435.429 388.367C441.949 388.144 443.158 388.572 443.158 391.103C443.158 393.109 441.144 394.795 437.071 396.195C428.374 399.184 423.134 402.976 419.452 408.94C416.051 414.447 408.866 436.31 407.314 445.874L406.388 451.569L409.313 447.501C415.226 439.281 425.593 428.839 438.885 417.719C448.472 409.7 453.44 404.222 455.638 399.253L458.764 392.187L454.623 379.077C452.345 371.866 450.429 363.624 450.367 360.762C450.138 350.321 448.411 349.294 443.725 356.807ZM757.442 353.523C756.904 355.538 756.451 359.45 756.44 362.218C756.427 364.988 754.952 371.51 753.162 376.713C746.663 395.604 748.9 401.724 768.215 417.897C782.749 430.066 795.486 443.071 798.638 448.962C799.726 450.996 800.909 452.371 801.264 452.015C802.384 450.895 794.13 422.033 790.451 414.208C786.268 405.308 777.328 397.461 769.754 396.04C758.798 393.985 761.96 386.442 773.097 388.066C776.454 388.556 779.199 388.67 779.199 388.322C779.199 385.271 760.516 349.862 758.905 349.862C758.64 349.862 757.982 351.509 757.442 353.523ZM550.724 384.841C545.443 386.992 538.654 391.144 535.639 394.066C530.104 399.432 525.595 410.981 528.069 413.454C529.984 415.369 541.419 412.473 546.368 408.818C550.828 405.523 561.936 385.563 560.926 382.659C560.551 381.58 556.713 382.402 550.724 384.841ZM645.759 383.035C645.759 384.193 648.034 389.695 650.814 395.257C656.176 405.988 663.369 412.131 672.862 414.087C679.282 415.41 680.26 413.869 678.093 405.851C675.294 395.495 667.31 388.528 652.083 383.157C646.968 381.352 645.759 381.328 645.759 383.035ZM321.967 410.479C323.694 414.282 325.123 420.268 325.142 423.776C325.173 429.285 324.119 431.176 317.448 437.581L309.718 445.005L309.203 439.673C308.775 435.241 316.788 403.583 318.342 403.568C318.608 403.565 320.241 406.676 321.967 410.479ZM897.994 438.144V444.467L892.951 440.878C881.657 432.835 879.436 422.878 885.894 409.265L888.812 403.116L893.403 417.467C895.929 425.361 897.994 434.665 897.994 438.144ZM333.368 453.224C342.188 457.785 346.012 471.88 340.545 479.684C338.652 482.389 336.382 483.302 331.56 483.302C323.461 483.302 320.441 478.504 323.328 470.223C324.324 467.366 324.739 464.379 324.249 463.587C322.46 460.693 316.674 462.264 312.034 466.903C302.994 475.945 306.565 495.232 318.639 502.574L323.523 505.544L319.468 509.352L315.412 513.161L309.375 508.275C299.564 500.335 295.527 491.061 296.218 478.065C296.863 465.953 299.689 460.677 308.888 454.417C315.272 450.072 326.239 449.538 333.368 453.224ZM894.226 452.492C905.201 456.65 911.338 466.588 911.338 480.207C911.338 491.543 906.757 500.887 897.587 508.257L891.486 513.161L887.431 509.352L883.375 505.544L888.054 502.699C901.762 494.361 904.755 474.21 893.588 465.427C889.11 461.904 885.504 461.346 881.911 463.621C880.025 464.817 880.09 465.662 882.318 468.841C887.637 476.435 883.976 483.907 875.06 483.653C864.975 483.367 860.525 471.614 866.282 460.48C870.733 451.873 883.193 448.311 894.226 452.492ZM97.8401 515.783C81.4563 525.772 85.5604 551.065 104.33 555.776C107.659 556.611 108.894 558.601 111.199 566.834C116.857 587.05 127.522 604.537 144.414 621.285C153.081 629.879 156.036 634.105 158.305 641.152C159.89 646.074 163.753 654.769 166.89 660.471C170.026 666.175 171.958 670.562 171.18 670.22C159.048 664.875 104.164 635.06 95.8174 629.279C90.2454 625.42 90.2113 625.321 90.1218 612.525C90.0046 595.844 88.2194 592.692 65.3263 568.731L47.1329 549.687L44.7684 557.649C43.063 563.389 42.7815 568.007 43.7579 574.187C45.1932 583.258 54.0165 604.099 57.7251 607.178C62.0196 610.742 59.8211 611.508 52.1955 609.106C41.024 605.587 18.4238 605.613 10.3523 609.154C6.80476 610.711 2.61767 613.147 1.04731 614.568C-1.61172 616.975 -0.384733 617.868 18.8876 627.56C30.2707 633.285 43.4129 639.098 48.0914 640.479C58.5746 643.571 69.201 642.279 77.0463 636.955L82.6605 633.145L95.6254 641.187C102.756 645.61 115.259 652.805 123.409 657.176L138.225 665.122L117.383 665.978C93.1356 666.972 79.803 669.848 57.9871 678.79L42.2168 685.253L35.6766 681.916C27.7874 677.891 26.9558 677.856 19.8233 681.241C8.39301 686.664 6.08222 699.919 15.0113 708.848C19.5466 713.383 21.7761 714.381 27.3789 714.381C32.9818 714.381 35.2112 713.383 39.7465 708.848C43.6 704.994 45.2794 701.821 45.2794 698.394C45.2794 693.655 45.9108 693.226 62.2442 686.84C71.5736 683.192 80.0324 680.207 81.0397 680.207C82.0487 680.207 80.6459 682.586 77.9234 685.496C72.454 691.34 63.1799 707.751 63.1799 711.587C63.1799 714.216 67.4728 716.565 69.7315 715.168C70.4882 714.701 72.9503 710.291 75.2025 705.37C81.1064 692.476 94.618 679.519 105.545 676.274C121.23 671.615 146.51 673.893 168.142 681.913C183.107 687.462 203.062 701.291 219.328 717.386C227.423 725.398 234.048 732.752 234.048 733.728C234.048 734.703 229.331 732.613 223.565 729.084C201.391 715.512 185.587 709.209 166.283 706.238C151.283 703.929 132.222 707.263 115.783 715.069C102.963 721.157 87.7768 731.86 87.6596 734.888C87.5766 737.03 106.014 745.648 118.32 749.22C141.565 755.967 154.593 754.231 179.846 741.022C193.286 733.992 194.779 733.577 203.961 734.314C223.694 735.897 247.688 752.995 256.712 771.9C259.34 777.41 263.389 788.463 265.708 796.463C268.025 804.463 270.359 811.418 270.891 811.921C271.424 812.423 271.543 804.412 271.156 794.119L270.451 775.405L262.028 759.132C248.588 733.167 233.161 715.144 200.573 687.335C189.134 677.574 175.274 658.256 169.44 643.941C163.652 629.742 160.659 610.991 161.878 596.571L162.886 584.656L170.679 581.362C177.328 578.554 178.758 577.12 180.412 571.603C182.059 566.105 181.922 564.236 179.501 559.135C173.896 547.32 160.77 544.863 151.706 553.927C144.736 560.897 144.058 569.994 149.973 577.154C153.685 581.649 153.732 582.124 152.007 597.71L150.241 613.666L144.241 607.474C135.4 598.351 127.055 583.497 122.403 568.599L118.294 555.444L124.097 549.641C129.156 544.582 129.9 542.827 129.893 535.946C129.88 517.757 112.515 506.834 97.8401 515.783ZM1091.64 513.65C1086.32 515.767 1078.62 524.826 1077.62 530.141C1076.21 537.631 1079.41 547.493 1084.55 551.535C1088.16 554.378 1088.61 555.672 1087.68 560.596C1084.89 575.504 1069.96 602.934 1059.54 612.294C1056.39 615.129 1056.33 614.929 1055.29 597.974C1054.31 581.937 1054.48 580.456 1057.81 575.953C1063.54 568.202 1062.63 560.534 1055.17 553.701C1049.62 548.611 1048.26 548.11 1042.23 548.918C1033.22 550.126 1026.55 557.374 1026.55 565.958C1026.55 573.987 1030.2 578.9 1038.95 582.649L1046.08 585.707V600.965C1046.08 634.868 1031.44 666.202 1005.2 688.446C975.862 713.318 955.807 737.435 943.077 763.155C938.234 772.937 937.835 775.021 937.464 792.446L937.067 811.206L941.22 797.374C947.85 775.303 955.337 761.283 965.021 752.812C977.299 742.07 990.777 735.373 1002.19 734.337C1011.25 733.516 1012.75 733.949 1031.29 742.789C1055.37 754.268 1063.47 755.441 1083.59 750.359C1091.15 748.45 1102.73 744.33 1109.33 741.202C1123.36 734.548 1123.39 734.706 1105.62 722.82C1079.39 705.276 1050.85 701.253 1021.67 710.983C1008.39 715.413 990.959 724.13 976.168 733.746C970.956 737.134 972.422 734.584 982.326 723.032C997.58 705.24 1026.22 685.278 1045.23 679.185C1062.42 673.677 1092.91 672.803 1105.01 677.47C1114.49 681.128 1127.12 694.475 1133.13 707.193C1136.24 713.749 1138.11 716.01 1139.89 715.326C1141.25 714.806 1142.66 714.381 1143.04 714.381C1143.41 714.381 1143.72 712.814 1143.72 710.898C1143.72 705.981 1137.53 694.189 1130.87 686.404C1124.26 678.687 1123.69 678.637 1148.19 687.94C1163 693.561 1163.25 693.745 1163.25 699.045C1163.25 709.771 1175 717.395 1185.94 713.761C1201.92 708.451 1201.66 686.563 1185.53 680.427C1180.25 678.417 1179.02 678.531 1172.61 681.634L1165.53 685.063L1152.55 679.589C1131.58 670.746 1114.6 667.047 1090.19 666.009C1069.75 665.14 1068.69 664.935 1073.1 662.717C1083.49 657.496 1110.77 641.973 1117.12 637.659L1123.88 633.072L1131.66 637.417C1137.8 640.849 1141.59 641.762 1149.73 641.762C1159.16 641.762 1161.84 640.859 1181.57 631.015C1193.42 625.103 1204.4 619.863 1205.96 619.37C1210.75 617.86 1209.18 615.359 1200.78 611.1C1189.94 605.604 1178.32 604.558 1162.55 607.655C1155.45 609.048 1149.37 609.917 1149.04 609.585C1148.7 609.253 1150.7 605.417 1153.47 601.063C1163.65 585.043 1167.26 563.818 1161.6 553.245C1160.08 550.401 1158.2 551.859 1142.46 568.098C1132.86 578.002 1123.33 588.887 1121.29 592.285C1116.9 599.578 1114.96 612.88 1117.29 619.581C1118.93 624.267 1118.75 624.465 1105.7 632.668C1095.97 638.79 1036.98 670.43 1035.29 670.442C1035.17 670.443 1038.64 663.464 1043.02 654.932C1047.39 646.401 1050.96 638.258 1050.96 636.838C1050.96 635.417 1057 627.879 1064.39 620.089C1080.59 602.988 1088.71 589.707 1094.53 570.77C1097.51 561.034 1099.68 556.529 1101.37 556.525C1105.82 556.515 1114.21 550.282 1116.97 544.943C1118.84 541.325 1119.43 537.252 1118.9 531.7C1117.86 520.907 1111.34 514.118 1101.2 513.272C1097.29 512.945 1092.99 513.116 1091.64 513.65ZM248.152 555.989C247.555 556.585 247.067 561.745 247.067 567.455C247.067 577.463 247.254 577.937 252.256 580.61C262.362 586.007 269.96 594.438 273.11 603.746L276.132 612.674L337.886 613.1L399.639 613.526L401.574 605.842C403.67 597.513 414.067 585.836 424.037 580.61C429.17 577.919 429.326 577.527 429.326 567.358C429.326 559.304 428.731 556.651 426.752 555.892C423.227 554.539 249.508 554.634 248.152 555.989ZM779.525 556.857C777.408 558.974 776.869 574.218 778.817 576.877C779.474 577.774 784.207 581.25 789.333 584.599C798.844 590.814 803.72 597.725 805.98 608.198L807.123 613.487H869.503H931.881L932.974 607.015C934.527 597.828 939.78 590.89 950.946 583.284C960.536 576.75 960.65 576.58 961.142 568.098C961.426 563.175 960.823 558.538 959.723 557.213C958.11 555.272 943.783 554.904 869.642 554.904C803.24 554.904 780.996 555.385 779.525 556.857ZM10.3507 574.366C6.50858 578.614 8.04966 586.765 13.965 593.483C18.1309 598.213 19.3237 598.604 31.8541 599.356C39.2372 599.798 45.2762 600.047 45.2697 599.907C45.2648 599.769 43.1997 594.529 40.6806 588.264C36.972 579.04 35.0387 576.331 30.5196 574.028C22.9721 570.179 14.0024 570.331 10.3507 574.366ZM1176.24 574.838C1172.4 577.452 1169.59 581.623 1166.45 589.418L1162.04 600.334L1175.26 599.364C1191.04 598.205 1192.95 597.372 1196.39 590.107C1200.05 582.404 1199.84 574.969 1195.9 572.861C1190.68 570.07 1181.97 570.946 1176.24 574.838ZM201.222 592.518C194.639 606.002 192.807 614.507 192.674 632.201C192.561 647.236 192.941 649.278 197.656 659.052C201.705 667.444 220.795 693.411 229.344 702.155C230.353 703.187 230.525 700.461 229.827 694.519C229.036 687.797 229.762 680.132 232.486 666.398C235.776 649.814 236.014 646.108 234.436 635.92C232.185 621.376 223.843 604.19 213.368 592.518L205.502 583.751L201.222 592.518ZM995.594 590.184C987.616 599.269 979.283 613.002 975.892 622.651C972.188 633.191 971.923 653.505 975.291 668.816C976.57 674.634 977.665 684.52 977.724 690.785L977.83 702.176L984.245 694.853C996.29 681.104 1009.3 661.854 1012.18 653.532C1015.51 643.915 1016.02 625.856 1013.34 613.16C1011.6 604.965 1003.19 584.195 1001.6 584.195C1001.19 584.195 998.485 586.89 995.594 590.184ZM271.476 626.506C265.678 632.304 268.464 639.925 277.182 642.113C279.301 642.645 308.308 642.745 341.643 642.336L402.253 641.591L405.248 637.89C408.554 633.811 407.886 628.634 403.628 625.285C401.659 623.738 385.944 623.251 337.886 623.251C276.9 623.251 274.619 623.363 271.476 626.506ZM802.911 625.808C798.981 629.739 799.668 637.373 804.223 640.356C807.588 642.561 816.273 642.831 871.075 642.427C931.258 641.986 934.162 641.825 936.367 638.807C939.568 634.428 939.253 630.336 935.422 626.506C932.28 623.363 929.998 623.251 868.817 623.251C813.397 623.251 805.149 623.572 802.911 625.808ZM299.696 652.188L281.535 652.647L280.868 661.952C279.392 682.505 279.607 712.656 281.315 724.857C283.585 741.057 288.941 754.535 300.3 772.632C310.086 788.224 331.925 818.381 333.495 818.472C334.042 818.503 334.916 814.925 335.437 810.519C336.489 801.631 341.879 790.002 351.567 775.716C380.08 733.663 378.006 697.156 345.017 660.465L337.471 652.072L328.88 661.664C314.696 677.501 304.023 701.535 304.023 717.635C304.023 726.241 308.181 740.694 314.713 754.798C319.585 765.322 328.14 791.114 326.07 789.044C322.999 785.975 307.263 760.009 302.815 750.675C288.708 721.069 292.715 692.788 315.155 663.586C319.772 657.578 323.551 652.426 323.551 652.138C323.551 651.848 322.268 651.64 320.703 651.671C319.137 651.703 309.683 651.936 299.696 652.188ZM351.215 652.05C351.215 652.225 354.994 657.352 359.612 663.441C388.147 701.065 388.178 738.584 359.706 780.598C347.298 798.907 345.576 803.434 345.576 817.715C345.576 832.83 346.82 835.678 363.329 858.398C369.182 866.454 378.66 882.248 384.391 893.498L394.811 913.952L395.813 906.517C397.05 897.325 403.265 883.666 408.394 878.862C410.51 876.882 417.216 872.641 423.297 869.438C444.657 858.189 453.425 842.848 454.948 814.054C455.433 804.879 455.22 797.374 454.475 797.374C451.601 797.374 430.381 811.224 422.77 818.067C412.63 827.183 405.515 841.575 404.036 855.957C403.387 862.278 401.545 868.828 399.458 872.231L395.966 877.926L395.153 820.97L394.339 764.014L388.868 777.846C385.861 785.454 382.307 793.802 380.972 796.396C378.686 800.84 358.437 823.595 355.724 824.767C353.685 825.649 354.289 817.823 356.811 810.672C358.1 807.022 363.612 797.472 369.059 789.451C374.507 781.428 381.503 769.371 384.606 762.657C393.944 742.447 395.102 734.534 395.128 690.785L395.153 651.729H373.184C361.101 651.729 351.215 651.874 351.215 652.05ZM833.308 652.183L811.746 652.637V690.572C811.746 742.392 814.737 753.76 837.622 788.901C843.862 798.484 849.747 808.386 850.699 810.905C852.386 815.372 853.106 825.038 851.75 825.038C850.105 825.038 830.183 803.075 827.625 798.44C826.066 795.617 822.039 786.715 818.675 778.66L812.559 764.014L811.746 820.902C810.978 874.551 810.779 877.554 808.241 873.677C806.76 871.417 804.703 863.759 803.666 856.66C802.631 849.56 799.97 839.961 797.752 835.326C793.162 825.732 779.351 812.254 766.031 804.37C751.307 795.654 751.533 795.62 751.548 806.557C751.577 829.209 757.82 848.809 768.155 858.688C771.097 861.502 778.63 866.551 784.895 869.91C791.16 873.269 797.673 877.179 799.368 878.598C803.746 882.265 810.177 897.464 811.275 906.738L812.208 914.609L819.86 898.709C824.069 889.963 832.935 874.886 839.563 865.205C861.493 833.177 860.92 834.288 861.802 821.974C862.842 807.434 860.354 800.186 847.522 780.378C832.149 756.649 827.653 744.629 826.743 724.843C825.622 700.436 830.811 685.11 847.625 663.174C852.215 657.186 855.722 652.162 855.42 652.007C855.117 651.854 845.168 651.934 833.308 652.183ZM883.348 651.721C883.348 652.372 886.191 656.302 889.667 660.453C913.798 689.286 919.015 723.328 903.858 753.057C899.832 760.953 881.72 788.798 881.72 787.093C881.72 781.545 886.62 766.437 891.714 756.275C903.261 733.235 905.483 716.653 899.577 697.536C896.031 686.056 883.813 666.455 874.783 657.762L869.216 652.403L861.584 661.337C843.067 683.011 835.794 699.554 835.794 719.997C835.794 739.463 840.72 752.94 856.754 777.329C868.119 794.617 871.877 803.112 871.921 811.613C871.94 815.416 872.531 818.529 873.234 818.529C874.64 818.529 891.863 795.898 902.703 779.809C912.724 764.933 922.055 744.54 924.82 731.468C926.496 723.538 927.238 709.815 927.258 686.31L927.285 652.543L908.978 652.52C898.91 652.509 889.022 652.056 887.009 651.518C884.996 650.977 883.348 651.068 883.348 651.721ZM345.778 687.325C348.016 691.688 350.919 700.4 352.23 706.687C354.859 719.289 356.488 723.154 361.487 728.641C363.95 731.347 364.361 732.805 363.029 734.136C360.489 736.677 354.03 734.698 347.827 729.477L342.561 725.046L343.428 729.071C343.905 731.284 345.231 736.418 346.374 740.481C348.997 749.804 347.684 756.738 341.148 768.082L335.993 777.033L331.305 766.663C325.639 754.131 325.225 744.493 329.855 732.778L333.197 724.322L327.333 728.303C317.543 734.945 308.242 732.592 315.167 725.222C319.417 720.696 323.525 710.937 323.642 705.076C323.744 699.981 327.3 690.899 333.264 680.502C337.858 672.492 338.293 672.73 345.778 687.325ZM880.808 695.667C882.059 700.142 883.525 706.462 884.065 709.714C884.607 712.965 887.257 718.669 889.951 722.389C892.646 726.111 894.417 729.858 893.886 730.717C892.186 733.469 885.602 732.398 879.735 728.416L874.041 724.553L877.867 735.333C882.184 747.502 881.938 750.974 875.69 766.213L871.45 776.548L866.074 768.019C859.203 757.121 857.836 748.297 861.218 736.664C864.647 724.87 864.624 724.807 858.813 729.696C849.412 737.608 839.33 736.996 845.643 728.898C850.818 722.26 853.685 715.523 854.951 707.037C856.251 698.331 860.365 687.616 865.766 678.878L869.115 673.459L873.825 680.494C876.415 684.363 879.558 691.192 880.808 695.667ZM280.279 796.154C280.871 816.067 282.355 837.139 283.577 842.978C288.648 867.207 304.08 897.822 321.87 918.946C356.253 959.772 366.494 974.506 374.492 994.654C388.411 1029.71 382.586 1059.87 355.632 1092.31L347.842 1101.68H371.498H395.153L395.18 1088.26C395.229 1065.01 401.986 1042.75 411.671 1033.92C413.774 1032 420.039 1028.16 425.595 1025.39C431.149 1022.61 438.174 1018.16 441.204 1015.5C448.359 1009.22 456.273 994.237 459.367 981.11C461.721 971.119 462.701 958.478 461.121 958.478C458.385 958.478 440.159 966.371 432.426 970.903C416.487 980.244 407.392 994.808 405.541 1013.95C404.871 1020.87 403.089 1026.85 400.249 1031.71L395.966 1039.03L395.063 992.652C394.196 948.057 393.989 945.711 389.699 931.628C380.447 901.259 362.513 871.004 328.45 828.293C305.408 799.4 294.5 784.025 287.663 770.805C284.578 764.839 281.413 759.956 280.629 759.952C279.825 759.949 279.672 775.703 280.279 796.154ZM921.59 766.86C916.008 778.652 900.957 800.336 877.82 829.92C840.723 877.353 826.344 901.472 817.186 931.628C812.914 945.693 812.701 948.111 811.835 992.652L810.932 1039.03L807.453 1032.52C805.539 1028.94 803.139 1020.52 802.119 1013.81C799.721 998.052 793.932 986.301 784.452 977.956C776.959 971.36 758.318 961.393 749.358 959.19L744.738 958.054L745.802 967.622C747.346 981.513 752.305 997.212 757.955 1006.1C762.817 1013.75 771.488 1020.26 790.399 1030.46C796.817 1033.93 799.565 1036.72 802.768 1043.05C808.686 1054.72 811.694 1069.37 811.721 1086.63L811.746 1101.68H835.479H859.211L853.786 1095.09C833.326 1070.25 827.656 1057.43 826.745 1033.93C825.401 999.225 836.177 977.106 879.545 925.558C903.769 896.764 914.454 877.591 921.961 849.448C925.632 835.691 926.172 829.912 926.877 796.967C927.315 776.517 927.036 759.954 926.257 759.964C925.481 759.975 923.38 763.077 921.59 766.86ZM193.535 775.462C187.665 782.147 187.678 782.019 191.094 797.14L193.702 808.695L203.298 800.35C211.939 792.834 212.893 791.374 212.893 785.657C212.893 769.83 203.036 764.639 193.535 775.462ZM998.088 772.948C996.454 774.753 994.821 779.698 994.396 784.123C993.637 792.005 993.685 792.098 1001.55 798.098C1005.9 801.42 1010.05 805.179 1010.77 806.451C1012.74 809.96 1015.16 809.221 1015.18 805.104C1015.19 803.091 1016.25 797.49 1017.54 792.656C1019.57 785.011 1019.57 783.283 1017.53 779.33C1012.74 770.064 1003.46 767.018 998.088 772.948ZM164.072 778.196C164.07 782.032 162.972 791.394 161.633 799.001C157.387 823.1 159.029 831.813 169.857 842.641L176.892 849.676L174.55 861.91C170.816 881.435 171.509 907.241 176.394 930.453C177.453 935.488 176.841 935.087 165.507 923.346C156.474 913.991 130.411 890.658 123.614 885.843C123.29 885.614 123.902 881.763 124.976 877.288C127.815 865.454 124.317 854.984 112.686 840.498C107.656 834.233 101.712 825.994 99.4788 822.191C97.2445 818.388 94.8377 815.274 94.1298 815.274C91.3699 815.274 87.5913 826.773 87.632 835.048C87.6678 842.404 91.4383 856.416 96.3983 867.622C97.4398 869.975 95.9573 869.814 85.2089 866.402C70.8104 861.829 57.1035 861.336 49.1606 865.106C41.4275 868.774 41.1249 870.061 47.2599 873.179C50.1988 874.673 57.3622 879.375 63.1799 883.628C78.8982 895.119 86.0486 898.268 96.4195 898.268C101.407 898.268 107.89 897.07 111.043 895.566C116.595 892.919 116.818 892.951 122.383 897.195C132.487 904.904 156.176 928.01 168.827 942.501C175.61 950.272 186.957 966.14 194.042 977.764C201.126 989.388 211.227 1004.91 216.486 1012.25C222.286 1020.35 224.901 1025.16 223.132 1024.47C221.528 1023.85 212.527 1021.25 203.129 1018.69C162.178 1007.54 130.155 991.812 115.254 975.544C111.624 971.582 112.226 971.764 120.85 977.243C138.035 988.157 182.269 1007.3 190.309 1007.3C191.11 1007.3 189.635 1003.45 187.032 998.755C184.426 994.055 180.645 985.59 178.625 979.939C173.756 966.312 167.628 959.717 160.472 960.405C156.259 960.81 154.606 962.042 152.682 966.207C149.011 974.159 145.852 972.2 141.701 959.399C139.69 953.194 136.45 946.422 134.502 944.348C129.418 938.936 122.828 939.395 118.509 945.46C114.133 951.606 111.936 951.574 102.724 945.237C92.9728 938.527 82.8265 937.205 78.0162 942.015C70.7551 949.276 75.4043 963.979 89.1047 977.09C91.8516 979.718 94.0989 982.392 94.0989 983.03C94.0989 983.668 91.5359 986.753 88.4033 989.886C81.1601 997.129 80.9291 1002.7 87.6125 1008.95C93.6303 1014.57 101.663 1016.09 118.204 1014.73C134.284 1013.41 136.884 1014.91 130.894 1022.03C127.747 1025.77 126.614 1028.73 126.966 1032.3C128.042 1043.26 143.276 1043.95 168.827 1034.2C190.138 1026.06 193.372 1025.81 209.638 1030.96C229.993 1037.41 238.569 1042.33 249.972 1054.11C255.597 1059.93 259.98 1064.9 259.709 1065.17C259.441 1065.44 253.438 1064.85 246.37 1063.86C230.686 1061.66 213.869 1064.05 203.896 1069.89C193.876 1075.76 183.86 1087.63 177.95 1100.62C169.979 1118.14 169.833 1119.59 176.025 1119.56C183.523 1119.52 200.646 1115.2 207.845 1111.53C217.925 1106.39 223.923 1100.43 230.709 1088.81C239.845 1073.17 246.619 1070.77 261.031 1078.08C265.433 1080.31 269.219 1082.14 269.442 1082.15C269.665 1082.15 269.849 1077.42 269.849 1071.64C269.849 1061.18 269.802 1061.07 260.795 1050.98C231.996 1018.7 222.738 998.226 227.607 977.573C228.712 972.888 232.422 962.781 235.855 955.11C243.76 937.44 246.111 926.471 244.863 913.099C243.866 902.412 236.393 877.113 234.234 877.113C232.271 877.113 216.771 898.539 212.382 907.32C203.585 924.923 203.461 938.737 211.817 970.294C214.008 978.563 216.236 987.892 216.768 991.025C217.71 996.567 217.58 996.48 211.941 987.77C198.897 967.622 188.95 942.825 184.498 919.346C181.608 904.116 181.463 877.876 184.184 862.626L186.042 852.21L192.491 851.562C206.001 850.203 214.122 842.102 225.145 818.982C229.267 810.337 234.105 801.208 235.895 798.692L239.151 794.119L232.938 794.155C221.297 794.222 204.429 804.581 194.931 817.499C189.743 824.553 190.104 824.939 187.639 809.712C185.199 794.651 175.626 777.405 167.201 772.896C164.342 771.366 164.074 771.822 164.072 778.196ZM1034.9 777.107C1027.95 782.949 1022.05 796.077 1019.8 810.672L1017.87 823.157L1007.81 812.746C996.947 801.499 983.911 794.162 974.749 794.136C971.765 794.126 969.568 794.712 969.867 795.434C970.165 796.157 975.436 806.425 981.581 818.252C995.608 845.251 999.834 849.18 1017.6 851.731C1022.23 852.397 1024.86 865.411 1025.04 888.588C1025.24 914.886 1021.72 933.048 1011.66 957.448C1007.41 967.782 990.676 998.001 989.732 997.059C989.184 996.509 993.128 979.363 998.046 960.919C1003.19 941.628 1002.98 927.24 997.335 912.473C993.27 901.838 974.886 875.99 972.917 878.143C969.989 881.34 964.469 899.561 963.06 910.678C961.138 925.834 963.267 937.787 970.416 951.982C987.963 986.828 984.341 1005.92 953.106 1043.2L937.049 1062.36V1073.19V1084.02L941.218 1080.74C950.997 1073.05 965.454 1072.37 970.52 1079.38C971.95 1081.35 975.882 1087.41 979.257 1092.83C988.889 1108.31 1004.03 1116.61 1027.05 1119.06L1036.5 1120.07L1035.42 1115.35C1033.26 1105.94 1022.92 1087.23 1015.77 1079.76C1002.4 1065.8 981.223 1059.94 959.15 1064.07C953.851 1065.06 949.184 1065.54 948.777 1065.13C948.37 1064.73 952.525 1059.72 958.011 1054.01C968.046 1043.55 978.101 1037.46 994.76 1031.73C1011.95 1025.81 1014.55 1025.95 1038.5 1034.03C1063.09 1042.33 1071.14 1043.17 1077.59 1038.1C1083.16 1033.72 1083.01 1029.85 1077 1023.01C1070.01 1015.05 1072.89 1013.11 1089.58 1014.57C1111.67 1016.49 1124.19 1011.05 1124.19 999.505C1124.19 995.14 1122.88 992.704 1118.25 988.467L1112.32 983.03L1121.46 973.16C1130.74 963.134 1135.02 953.598 1132.91 947.668C1129.17 937.17 1119.61 936.072 1106.22 944.604C1101.33 947.714 1096.2 950.277 1094.8 950.3C1093.4 950.322 1090.63 948.145 1088.65 945.46C1081.31 935.533 1070.99 940.995 1066.48 957.193C1062.64 970.978 1058.75 975.386 1056.36 968.649C1054.5 963.409 1050.5 960.106 1046.01 960.106C1039.15 960.106 1035.16 964.622 1029.14 979.196C1026.1 986.563 1021.76 995.9 1019.5 999.944C1017.24 1003.99 1016 1007.3 1016.76 1007.3C1017.51 1007.3 1024.96 1005.07 1033.32 1002.35C1050.92 996.629 1074.02 985.77 1086.59 977.305C1099.75 968.454 1098.41 971.489 1084.31 982.481C1063.85 998.439 1043.44 1007.39 994.703 1021.8C988.375 1023.67 982.733 1025.2 982.167 1025.2C981.6 1025.2 985.485 1019.43 990.798 1012.38C996.109 1005.33 1005.92 990.68 1012.6 979.824C1032.6 947.33 1050.04 926.814 1077 904.059L1090.83 892.387L1096.46 895.677C1108.25 902.567 1123.76 898.985 1142.21 885.104C1147.07 881.454 1154.64 876.626 1159.03 874.375L1167.02 870.286L1161.47 866.782C1153.96 862.035 1132.48 862.119 1119.16 866.948L1110.07 870.249L1114.2 860.255C1119.53 847.38 1120.89 827.933 1116.99 820.389C1115.53 817.576 1113.79 815.274 1113.11 815.274C1112.43 815.274 1110.49 817.654 1108.8 820.563C1107.11 823.473 1101.72 830.978 1096.83 837.243C1091.93 843.508 1086.58 851.564 1084.94 855.144C1081.75 862.097 1080.87 877.07 1083.38 881.763C1084.62 884.076 1081.72 887.27 1067 899.799C1057.17 908.173 1045.01 919.672 1039.99 925.351C1034.98 931.03 1030.69 935.489 1030.46 935.261C1030.23 935.032 1031.17 929.729 1032.56 923.473C1035.74 909.137 1035.77 873.695 1032.61 859.544L1030.33 849.299L1034.83 846.089C1040.91 841.766 1045.71 833.644 1047.01 825.483C1048.18 818.176 1043.03 772.964 1041.03 772.964C1040.37 772.964 1037.6 774.829 1034.9 777.107ZM314.247 830.566L328.616 848.298L322.423 851.764C318.464 853.979 314.679 858.088 311.935 863.149C307.928 870.537 307.52 870.841 305.832 867.687C303.043 862.478 303.653 857.689 308.059 850.171C311.274 844.683 311.671 842.932 310.006 841.551C308.513 840.311 306.705 840.449 303.637 842.041C299.536 844.168 299.273 844.042 297.473 839.126C296.438 836.301 295.219 827.398 294.763 819.343C293.945 804.85 293.968 804.739 296.907 808.765C298.542 811.003 306.345 820.812 314.247 830.566ZM910.233 835.741C907.663 844.579 907.663 844.579 903.714 841.992C899.668 839.341 896.37 839.992 896.361 843.442C896.36 844.508 897.932 848.353 899.855 851.985C902.625 857.215 903.097 859.927 902.117 865.004C901.022 870.681 900.669 871.067 899.03 868.372C892.931 858.338 889.999 854.797 885.383 851.889C882.542 850.099 880.191 848.026 880.157 847.284C880.121 846.54 885.452 839.583 892.003 831.824C898.553 824.064 905.692 815.266 907.87 812.274L911.826 806.832L912.314 816.868C912.595 822.667 911.717 830.635 910.233 835.741ZM383.761 833.001C383.761 838.378 374.897 855.957 372.186 855.957C370.753 855.957 367.488 846.685 367.488 842.615C367.488 838.669 371.758 830.192 376.18 825.359C379.39 821.851 379.742 821.792 381.685 824.449C382.827 826.01 383.761 829.859 383.761 833.001ZM836.328 833.517C838.024 836.838 839.41 841.38 839.41 843.611C839.41 847.893 836.308 855.957 834.662 855.957C832.78 855.957 824.445 840.605 823.664 835.701C823.23 832.968 823.684 828.623 824.675 826.044C826.452 821.411 826.515 821.392 829.861 824.417C831.723 826.101 834.634 830.197 836.328 833.517ZM56.9961 831.873C54.3175 834.552 54.5421 843.761 57.4241 849.331C59.9773 854.27 62.8756 855.957 68.8039 855.957C70.8559 855.957 75.5996 857.04 79.3457 858.361C85.6759 860.594 86.099 860.564 85.3244 857.954C84.8655 856.408 84.0226 852.947 83.453 850.262C80.9713 838.584 79.0153 834.659 74.5158 832.334C68.8918 829.424 59.686 829.183 56.9961 831.873ZM1134.71 831.47C1129.57 833.554 1127.58 836.84 1124.31 848.63L1121.28 859.551L1126.4 858.385C1129.21 857.746 1134.59 856.693 1138.34 856.047C1147.06 854.548 1149.24 852.654 1151.7 844.457C1153.39 838.807 1153.3 837.206 1151.11 833.862C1148.39 829.72 1141.51 828.716 1134.71 831.47ZM326.172 875.892C327.66 878.802 333.127 886.844 338.323 893.767L347.768 906.351L348.862 899.065C349.462 895.059 349.459 889.14 348.854 885.913C348.095 881.874 348.302 880.387 349.518 881.137C352.916 883.238 360.948 899.125 360.964 903.774C360.987 911.174 357.63 920.472 352.878 926.163L348.514 931.392L335.814 916.132C322.483 900.116 318.669 893.311 318.669 885.544C318.669 881.031 321.59 870.603 322.854 870.603C323.191 870.603 324.685 872.982 326.172 875.892ZM887.61 888.115C886.296 897.7 883.823 901.902 870.337 917.464C857.32 932.484 856.769 932.562 850.79 920.214C844.757 907.75 847.43 889.519 856.378 882.094C858.671 880.19 858.948 881.391 859.034 893.594C859.112 904.767 859.478 906.673 861.068 904.189C862.134 902.525 866.572 896.666 870.93 891.171C875.289 885.677 880.038 878.724 881.484 875.72L884.114 870.26L886.339 875.71C887.707 879.064 888.197 883.837 887.61 888.115ZM280.391 933.252C280.41 966.812 280.975 994.273 281.647 994.276C282.319 994.278 282.868 993.668 282.868 992.919C282.868 992.17 286.147 986.494 290.156 980.307C298.597 967.276 299.598 959.16 294.223 947.317C290.498 939.107 290.078 931.074 293.157 926.865C295.152 924.137 295.717 924.437 300.887 930.974C306.133 937.608 306.457 938.741 306.36 950.06L306.254 962.093L310.944 956.623C313.523 953.616 317.079 948.052 318.846 944.259C322.612 936.174 322.342 935.418 310.169 919.929C301.595 909.018 282.868 877.713 282.868 874.291C282.868 873.158 282.303 872.231 281.611 872.231C280.92 872.231 280.371 899.69 280.391 933.252ZM920.54 883.008C913.661 896.45 902.736 913.06 892.109 926.227C884.903 935.157 884.715 935.67 886.557 941.252C887.605 944.43 891.644 950.521 895.533 954.789L902.602 962.547L901.011 954.96C898.924 945.017 901.333 936.155 907.808 929.952C911.971 925.965 913.046 925.574 914.319 927.589C916.791 931.498 916.125 939.872 912.639 948.715C907.434 961.923 908.21 966.727 917.928 981.425L926.472 994.348L926.914 964.316C927.157 947.797 927.157 920.139 926.914 902.85L926.472 871.417L920.54 883.008ZM377.97 940.64C379.46 947.387 380.458 957.593 380.186 963.321L379.693 973.735L373.693 963.995C370.395 958.636 364.372 949.976 360.313 944.747C356.253 939.519 353.262 934.707 353.666 934.052C354.071 933.397 356.572 932.428 359.225 931.898C361.963 931.349 365.641 928.778 367.734 925.947L371.42 920.962L373.338 924.668C374.395 926.705 376.478 933.893 377.97 940.64ZM849.366 932.633C851.498 932.741 853.791 932.741 854.463 932.633C856.769 932.27 855.667 934.135 848.071 943.448C843.884 948.583 837.643 957.131 834.204 962.446C830.764 967.761 827.497 972.521 826.945 973.023C824.657 975.103 828.138 942.161 831.28 931.989L834.681 920.98L840.085 926.71C843.081 929.887 847.218 932.528 849.366 932.633ZM869.992 952.259C846.422 980.232 835.459 1005.55 835.592 1031.71C835.7 1052.61 842.593 1067.88 861.057 1088.08L869.2 1096.99L876.384 1089.98C886.75 1079.86 895.951 1065.11 899.873 1052.3C906.426 1030.91 901.958 1010.36 886.222 989.518C879.354 980.423 875.343 971.656 875.367 965.801C875.38 962.833 875.624 962.897 878.144 966.537C879.663 968.731 885.144 975.603 890.324 981.809C901.894 995.671 906.709 1003.85 910.06 1015.32C917.209 1039.82 909.453 1066.84 888.401 1090.79C883.831 1095.99 880.093 1100.57 880.093 1100.96C880.093 1101.36 890.711 1101.68 903.689 1101.68H927.285V1066.14C927.285 1014.05 923.678 1002.21 899.43 974.734C892.038 966.358 884.031 955.925 881.639 951.551L877.291 943.598L869.992 952.259ZM325.513 952.376C323.464 956.179 315.585 966.161 308.007 974.555C283.844 1001.31 279.613 1015.31 279.613 1068.47V1101.68H303.209C316.187 1101.68 326.805 1101.08 326.805 1100.34C326.805 1099.6 324.885 1097.22 322.54 1095.05C315.456 1088.5 302.697 1069.32 299.195 1059.95C292.212 1041.29 293.217 1020.93 301.994 1003.23C306.251 994.647 329.91 964.294 331.277 965.663C333.669 968.055 328.831 979.207 320.239 991.105C305.069 1012.11 300.876 1030.16 306.618 1049.72C310.517 1062.99 317.743 1075.51 328.136 1086.98L337.464 1097.28L347.635 1086.19C372.567 1058.98 378.175 1032.64 366.089 999.521C359.814 982.328 336.001 945.836 330.87 945.551C329.974 945.501 327.564 948.573 325.513 952.376ZM346.128 992.611C348.642 1001 348.424 1009.55 345.519 1016.5C341.739 1025.55 342.353 1028 347.189 1023.16C352.683 1017.67 360.601 1014.41 362.891 1016.7C364.116 1017.92 363.148 1020.49 359.591 1025.48C356.25 1030.15 353.702 1036.63 352.011 1044.73C349.708 1055.76 340.371 1078.93 338.244 1078.88C335.974 1078.83 326.53 1058.39 324.263 1048.61C321.404 1036.29 319.772 1032.55 314.906 1027.21C312.444 1024.51 312.033 1023.05 313.362 1021.72C315.681 1019.4 325.801 1021.21 328.468 1024.43C332.429 1029.2 333.005 1026.65 329.936 1017.92C325.959 1006.6 326.021 998.608 330.156 989.492C335.474 977.769 336.672 976.934 340.774 982.079C342.712 984.509 345.121 989.248 346.128 992.611ZM875.88 986.462C881.021 996.781 881.32 1006.48 876.892 1019.35L873.691 1028.65L878.643 1024.48C883.662 1020.26 892.038 1018.89 893.946 1021.98C894.511 1022.89 893.108 1025.85 890.83 1028.56C888.552 1031.27 885.919 1036.56 884.98 1040.32C880.56 1058.03 879.452 1061.15 874.423 1070.02L869.048 1079.51L863.065 1067.63C859.752 1061.05 856.048 1050.34 854.764 1043.63C853.294 1035.95 850.954 1029.56 848.369 1026.17C846.126 1023.23 844.292 1019.53 844.292 1017.95C844.292 1013.69 851.981 1016.07 858.531 1022.38C864.564 1028.18 865.268 1026.46 861.379 1015.43C860.036 1011.63 858.954 1005.86 858.974 1002.62C859.024 994.41 866.627 978.006 870.383 978.006C871.088 978.006 873.561 981.811 875.88 986.462ZM270.663 1112.95C263.433 1115.99 261.268 1120.48 262.022 1130.88C262.411 1136.26 263.293 1141.23 263.981 1141.92C265.382 1143.33 265.236 1143.33 348.774 1142.74C382.639 1142.5 410.041 1141.65 411.398 1140.79C413.097 1139.72 413.813 1136.35 413.813 1129.44C413.813 1121.41 413.141 1118.95 410.135 1115.94L406.458 1112.26L340.187 1111.92C303.738 1111.73 272.453 1112.2 270.663 1112.95ZM800.818 1113.82C794.711 1116.51 793.468 1120.12 794.161 1133.15L794.659 1142.51L868.653 1142.4C909.349 1142.35 943.269 1141.68 944.032 1140.92C944.795 1140.15 945.418 1135.29 945.418 1130.12C945.418 1122.16 944.768 1120.05 941.199 1116.48L936.978 1112.26L871.514 1111.89C818.008 1111.58 805.095 1111.94 800.818 1113.82ZM254.831 1154.19C241.505 1157.49 236.419 1169.54 237.599 1195.03L238.116 1206.19L337.383 1206.25L436.649 1206.31L437.08 1188.58C437.582 1168 435.432 1161.69 426.072 1156.25C420.563 1153.05 417.745 1152.94 340.637 1152.81C296.781 1152.74 258.168 1153.36 254.831 1154.19ZM786.522 1154.06C773.577 1158.67 769.436 1167.26 769.436 1189.51V1205.83L835.749 1205.9C872.222 1205.93 916.342 1205.99 933.795 1206.03C951.248 1206.07 966.521 1206.04 967.737 1205.97C969.498 1205.86 969.827 1202.06 969.356 1187.23C968.718 1167.11 967.391 1163.63 957.579 1156.3C953.197 1153.03 951.106 1152.93 872.246 1152.63C818.19 1152.42 789.787 1152.89 786.522 1154.06Z" fill="white"/>
</svg>
